<?xml version="1.0" standalone="no"?>
<!DOCTYPE svg PUBLIC "-//W3C//DTD SVG 20010904//EN"
 "http://www.w3.org/TR/2001/REC-SVG-20010904/DTD/svg10.dtd">
<svg version="1.0" xmlns="http://www.w3.org/2000/svg"
 width="500.000000pt" height="500.000000pt" viewBox="0 0 500.000000 500.000000"
 preserveAspectRatio="xMidYMid meet">

<g transform="translate(0.000000,500.000000) scale(0.100000,-0.100000)"
fill="#000000" stroke="none">
<path d="M2101 4954 c-81 -22 -164 -81 -211 -149 -16 -23 -62 -140 -105 -265
-115 -339 -183 -536 -217 -628 -16 -46 -34 -95 -38 -110 -5 -15 -29 -85 -55
-157 -25 -71 -59 -168 -75 -215 -16 -47 -45 -132 -65 -190 -21 -58 -86 -250
-146 -428 -93 -274 -109 -332 -109 -385 0 -154 88 -288 235 -357 47 -22 64
-24 277 -28 l227 -4 6 23 c3 13 129 663 281 1444 151 781 278 1430 281 1443 5
22 5 22 -113 21 -70 0 -141 -7 -173 -15z"/>
</g>
</svg>
